<svg width="100" height="100" viewBox="0 0 100 100" fill="none" xmlns="http://www.w3.org/2000/svg">
<g clip-path="url(#clip0_6_202)">
<path d="M49.939 -0.0610347C50.2224 -0.0605007 50.2224 -0.0605007 50.5115 -0.0599559C53.3109 -0.0510832 56.0347 0.0483088 58.7891 0.585938C59.0519 0.633098 59.0519 0.633098 59.32 0.68121C67.8365 2.22228 75.8711 6.0679 82.4219 11.7188C82.5674 11.8426 82.7129 11.9665 82.8629 12.0941C85.5005 14.401 87.9754 16.8913 90.0391 19.7266C90.2063 19.9512 90.3737 20.1757 90.5411 20.4002C91.7209 22.0002 92.7676 23.6634 93.75 25.3906C93.8212 25.514 93.8924 25.6374 93.9657 25.7646C96.5391 30.2606 98.2351 35.2448 99.2798 40.3076C99.3086 40.4464 99.3374 40.5852 99.367 40.7282C99.9501 43.7834 100.073 46.8372 100.061 49.939C100.061 50.2224 100.061 50.2224 100.06 50.5115C100.051 53.3109 99.9517 56.0347 99.4141 58.7891C99.3826 58.9643 99.3512 59.1395 99.3188 59.32C97.7777 67.8365 93.9321 75.8711 88.2812 82.4219C88.1574 82.5674 88.0335 82.7129 87.9059 82.8629C85.599 85.5005 83.1087 87.9754 80.2734 90.0391C80.0488 90.2063 79.8243 90.3737 79.5998 90.5411C77.9998 91.7209 76.3366 92.7676 74.6094 93.75C74.486 93.8212 74.3626 93.8924 74.2354 93.9657C69.7394 96.5391 64.7552 98.2351 59.6924 99.2798C59.5536 99.3086 59.4148 99.3374 59.2718 99.367C56.2166 99.9501 53.1628 100.073 50.061 100.061C49.8721 100.061 49.6831 100.06 49.4885 100.06C46.6891 100.051 43.9653 99.9517 41.2109 99.4141C41.0357 99.3826 40.8605 99.3512 40.68 99.3188C32.1635 97.7777 24.1289 93.9321 17.5781 88.2812C17.4326 88.1574 17.2871 88.0335 17.1371 87.9059C14.4995 85.599 12.0246 83.1087 9.96094 80.2734C9.79365 80.0488 9.62632 79.8243 9.45892 79.5998C8.27911 77.9998 7.23241 76.3366 6.25 74.6094C6.17881 74.486 6.10762 74.3626 6.03428 74.2354C3.4609 69.7394 1.76493 64.7552 0.720215 59.6924C0.691419 59.5536 0.662623 59.4148 0.632954 59.2718C0.0498758 56.2166 -0.0732046 53.1628 -0.0610347 50.061C-0.0606787 49.8721 -0.0603227 49.6831 -0.0599559 49.4885C-0.0510832 46.6891 0.0483088 43.9653 0.585938 41.2109C0.633098 40.9481 0.633098 40.9481 0.68121 40.68C2.22228 32.1635 6.0679 24.1289 11.7188 17.5781C11.8426 17.4326 11.9665 17.2871 12.0941 17.1371C14.401 14.4995 16.8913 12.0246 19.7266 9.96094C19.9512 9.79365 20.1757 9.62632 20.4002 9.45892C22.0002 8.27911 23.6634 7.23241 25.3906 6.25C25.514 6.17881 25.6374 6.10762 25.7646 6.03428C30.2606 3.4609 35.2448 1.76493 40.3076 0.720215C40.4464 0.691419 40.5852 0.662623 40.7282 0.632954C43.7834 0.0498758 46.8372 -0.0732046 49.939 -0.0610347Z" fill="black"/>
</g>
<defs>
<clipPath id="clip0_6_202">
<rect width="100" height="100" fill="white"/>
</clipPath>
</defs>
</svg>
