<svg width="88" height="100" viewBox="0 0 88 100" fill="none" xmlns="http://www.w3.org/2000/svg">
<path d="M82.8125 15.625H62.5V10.9375C62.5 4.90625 57.5938 0 51.5625 0H35.9375C29.9062 0 25 4.90625 25 10.9375V15.625H4.6875C2.1 15.625 0 17.725 0 20.3125C0 22.9 2.1 25 4.6875 25H82.8125C85.4 25 87.5 22.9 87.5 20.3125C87.5 17.725 85.4 15.625 82.8125 15.625ZM34.375 10.9375C34.375 10.075 35.075 9.375 35.9375 9.375H51.5625C52.425 9.375 53.125 10.075 53.125 10.9375V15.625H34.375V10.9375Z" fill="black"/>
<path d="M71.875 31.25H15.625C14.3375 31.25 13.1125 31.775 12.225 32.7125C11.3375 33.65 10.875 34.9 10.9437 36.1875L13.4437 83.7125C13.925 92.8438 21.4625 100 30.6062 100H56.8875C66.0312 100 73.5687 92.8438 74.05 83.7188L76.55 36.1875C76.6187 34.9 76.1562 33.65 75.2687 32.7125C74.3812 31.775 73.1562 31.25 71.8687 31.25H71.875Z" fill="black"/>
</svg>
