<svg width="100" height="100" viewBox="0 0 100 100" fill="none" xmlns="http://www.w3.org/2000/svg">
<g clip-path="url(#clip0_6_204)">
<path d="M66.2476 5.70067C68.297 7.14697 70.0338 9.06612 71.802 10.833C72.0851 11.1152 72.3683 11.3974 72.6515 11.6795C73.4154 12.4409 74.1787 13.2029 74.9418 13.9652C75.4193 14.4421 75.897 14.919 76.3746 15.3958C77.8716 16.89 79.3681 18.3847 80.8641 19.8799C82.5869 21.6018 84.3109 23.3224 86.0361 25.042C87.3731 26.3747 88.709 27.7087 90.044 29.0434C90.84 29.8392 91.6364 30.6345 92.4341 31.4286C93.1837 32.175 93.9319 32.9228 94.6791 33.6717C94.9527 33.9455 95.2269 34.2188 95.5015 34.4915C98.7332 37.7017 98.7332 37.7017 99.4751 39.7217C99.5348 39.8803 99.5945 40.0389 99.6559 40.2023C100.424 42.3856 100.268 45.0307 99.3134 47.1306C98.8915 47.8956 98.425 48.561 97.8516 49.2187C97.7448 49.3487 97.6381 49.4786 97.5281 49.6124C96.9831 50.2614 96.4239 50.8386 95.78 51.3898C94.9101 52.1481 94.0941 52.9515 93.2812 53.7701C93.1254 53.9262 92.9695 54.0823 92.809 54.2431C92.4732 54.5797 92.1376 54.9164 91.8022 55.2534C91.2705 55.7876 90.7382 56.3212 90.2057 56.8547C89.0754 57.9872 87.9458 59.1205 86.8164 60.2539C85.5069 61.568 84.1971 62.8818 82.8865 64.1948C82.3637 64.7188 81.8416 65.2433 81.3195 65.7679C80.9969 66.0912 80.6743 66.4145 80.3517 66.7377C80.2081 66.8823 80.0646 67.0268 79.9168 67.1757C79.1489 67.9436 78.3608 68.6712 77.5387 69.3804C76.8389 70.0011 76.1845 70.6667 75.5257 71.3303C75.3718 71.4845 75.2178 71.6387 75.0592 71.7976C74.7276 72.1299 74.3962 72.4625 74.065 72.7953C73.5398 73.323 73.014 73.8501 72.4881 74.377C71.3717 75.4955 70.2561 76.6149 69.1406 77.7344C67.8473 79.0324 66.5536 80.33 65.2591 81.6268C64.7429 82.1443 64.2272 82.6624 63.7116 83.1805C63.393 83.4999 63.0743 83.8192 62.7556 84.1385C62.6139 84.2812 62.4722 84.4239 62.3262 84.5709C61.5506 85.3466 60.7569 86.0874 59.9224 86.7997C59.3112 87.3373 58.7532 87.9258 58.1894 88.5124C57.9312 88.7769 57.6728 89.0413 57.4143 89.3055C57.0156 89.7137 56.618 90.1227 56.2229 90.5344C54.1388 92.7027 52.0369 94.5876 49.0235 95.3125C48.8254 95.3627 48.8254 95.3627 48.6234 95.414C47.8309 95.543 47.0537 95.5382 46.252 95.5393C46.0728 95.5402 45.8935 95.5412 45.7088 95.5422C45.1167 95.5451 44.5245 95.5464 43.9324 95.5475C43.519 95.5486 43.1056 95.5497 42.6923 95.5509C41.8252 95.5529 40.9582 95.554 40.0911 95.5547C38.985 95.5558 37.879 95.5605 36.7729 95.5661C35.9185 95.5697 35.0641 95.5707 34.2096 95.571C33.8022 95.5716 33.3947 95.5731 32.9873 95.5757C28.2967 95.6033 25.0814 94.5608 21.6725 91.2309C20.7769 90.344 19.8913 89.4473 19.0064 88.5498C18.5497 88.0877 18.0927 87.6259 17.6351 87.1646C17.3526 86.8797 17.0705 86.5943 16.7892 86.3083C16.1604 85.6734 15.5247 85.0597 14.8477 84.4762C13.9999 83.7452 13.2135 82.9613 12.4268 82.1655C12.2766 82.0146 12.1265 81.8637 11.9718 81.7083C11.3362 81.0696 10.7019 80.4297 10.0674 79.7899C9.601 79.32 9.13402 78.8507 8.66701 78.3813C8.52618 78.2389 8.38534 78.0964 8.24024 77.9497C7.45656 77.1623 6.65301 76.4129 5.81148 75.6877C5.105 75.0753 4.44737 74.4133 3.7842 73.7549C3.6427 73.6174 3.50121 73.4799 3.35542 73.3383C2.15381 72.1454 1.11501 70.8692 0.524919 69.2627C0.46525 69.1041 0.40558 68.9455 0.344102 68.782C-0.438006 66.56 -0.228816 63.8296 0.781267 61.7187C1.67019 60.2491 2.78536 59.0478 4.00316 57.8475C4.27448 57.5765 4.27448 57.5765 4.55129 57.3001C4.94122 56.9106 5.33205 56.5222 5.72364 56.1344C6.3442 55.52 6.96268 54.9035 7.58092 54.2867C8.55966 53.3108 9.5398 52.3363 10.5205 51.3624C12.2758 49.6192 14.0287 47.8737 15.7811 46.1276C16.3947 45.5162 17.009 44.9054 17.6238 44.2952C17.9146 44.0065 18.2052 43.7176 18.4956 43.4286C18.8479 43.0781 19.2005 42.7279 19.5536 42.3782C19.7113 42.2211 19.869 42.064 20.0314 41.9022C20.1667 41.7679 20.3019 41.6336 20.4412 41.4952C20.8235 41.0943 21.1872 40.6863 21.5494 40.2675C22.2227 39.4931 22.9293 38.7611 23.6552 38.0361C23.7882 37.9026 23.9212 37.769 24.0582 37.6314C24.4997 37.1882 24.9418 36.7457 25.384 36.3033C25.7024 35.9839 26.0208 35.6646 26.3392 35.3452C27.201 34.4807 28.0636 33.617 28.9263 32.7533C29.4659 32.2132 30.0053 31.6729 30.5448 31.1326C32.0412 29.6339 33.5377 28.1353 35.035 26.6374C35.1784 26.4939 35.1784 26.4939 35.3246 26.3476C35.4683 26.2039 35.4683 26.2039 35.6149 26.0572C35.8089 25.8631 36.003 25.6689 36.1971 25.4748C36.3415 25.3303 36.3414 25.3303 36.4888 25.1829C38.0488 23.6221 39.6076 22.0599 41.1658 20.4972C42.7693 18.889 44.3739 17.2821 45.9796 15.6761C46.8796 14.7759 47.7792 13.8752 48.6775 12.9733C49.5225 12.1251 50.3689 11.2783 51.2164 10.4325C51.5263 10.1227 51.8358 9.81246 52.1446 9.50164C55.9665 5.65722 55.9665 5.65722 57.9834 5.00487C58.1561 4.94697 58.3288 4.88906 58.5068 4.8294C58.7432 4.75915 58.7432 4.75915 58.9844 4.68749C59.104 4.64998 59.2236 4.61246 59.3468 4.57381C61.6864 4.11781 64.186 4.51557 66.2476 5.70067ZM32.0108 42.9411C31.8398 43.1125 31.6688 43.2839 31.4926 43.4605C31.3973 43.5554 31.3021 43.6503 31.2039 43.7481C30.883 44.0684 30.5635 44.39 30.244 44.7117C30.015 44.9407 29.786 45.1697 29.5569 45.3986C28.9334 46.022 28.3111 46.6466 27.689 47.2714C27.0393 47.9235 26.3886 48.5745 25.7379 49.2256C24.5052 50.4596 23.2735 51.6945 22.0421 52.9298C20.6405 54.3357 19.2378 55.7406 17.835 57.1453C14.9487 60.0358 12.0637 62.9276 9.1797 65.8203C9.33313 65.9737 9.48655 66.1271 9.64462 66.2851C10.0595 66.7001 10.4739 67.1155 10.8878 67.5315C11.6408 68.288 12.3944 69.0438 13.1482 69.7995C13.472 70.1243 13.7957 70.4494 14.1192 70.7745C14.5894 71.2471 15.0602 71.719 15.5312 72.1908C15.6738 72.3345 15.8165 72.4782 15.9635 72.6262C16.7397 73.4026 17.5357 74.1391 18.3669 74.8559C19.0253 75.4392 19.6398 76.065 20.2576 76.6907C20.3947 76.8285 20.5319 76.9664 20.6732 77.1085C21.2527 77.6912 21.8311 78.2751 22.4096 78.8588C22.8352 79.2881 23.2615 79.7167 23.6878 80.1453C23.8158 80.2749 23.9438 80.4045 24.0757 80.5381C24.8239 81.2902 25.5932 82.0033 26.4004 82.6919C27.1368 83.3428 27.8044 84.0689 28.4764 84.7855C28.5883 84.9008 28.7002 85.0161 28.8155 85.1349C28.9129 85.2377 29.0104 85.3404 29.1108 85.4463C30.1347 86.2405 31.1573 86.4151 32.4241 86.407C32.5742 86.4084 32.7243 86.4097 32.879 86.4111C33.3713 86.4146 33.8636 86.4139 34.3559 86.4128C34.7006 86.4137 35.0452 86.4147 35.3898 86.4159C36.1107 86.4176 36.8315 86.4172 37.5524 86.4152C38.4734 86.413 39.3942 86.4169 40.3152 86.4226C41.0265 86.4262 41.7377 86.4262 42.449 86.4251C42.7885 86.425 43.1279 86.4262 43.4673 86.4286C43.9431 86.4316 44.4186 86.4294 44.8944 86.4261C45.1019 86.4289 45.1019 86.4289 45.3136 86.4318C47.1412 86.4052 48.2588 85.4517 49.4793 84.2031C49.6129 84.0697 49.7465 83.9362 49.8841 83.7987C50.3213 83.3609 50.7558 82.9204 51.1902 82.4799C51.4943 82.1743 51.7986 81.8689 52.1031 81.5636C52.9011 80.7626 53.6968 79.9593 54.4919 79.1555C55.3049 78.3345 56.1201 77.5157 56.9351 76.6968C58.5319 75.0917 60.1261 73.4841 61.7188 71.875C61.3992 71.0636 60.8083 70.5195 60.2012 69.9172C60.0847 69.8001 59.9682 69.683 59.8482 69.5623C59.4572 69.1698 59.0648 68.7786 58.6723 68.3874C58.3919 68.1064 58.1115 67.8254 57.8313 67.5442C57.0695 66.7807 56.3065 66.0184 55.5433 65.2564C54.7457 64.4599 53.9492 63.6624 53.1524 62.865C51.8146 61.5265 50.476 60.1888 49.1369 58.8516C47.5867 57.3035 46.038 55.7541 44.4899 54.2039C43.1623 52.8745 41.834 51.5459 40.505 50.218C39.7106 49.4241 38.9164 48.63 38.1229 47.8352C37.3773 47.0886 36.6309 46.3429 35.8837 45.5979C35.6088 45.3236 35.3344 45.049 35.0602 44.774C34.6875 44.4002 34.3136 44.0277 33.9394 43.6554C33.8299 43.545 33.7203 43.4346 33.6075 43.3208C32.8692 42.4947 32.8692 42.4947 32.0108 42.9411Z" fill="black"/>
</g>
<defs>
<clipPath id="clip0_6_204">
<rect width="100" height="100" fill="white"/>
</clipPath>
</defs>
</svg>
