<svg width="100" height="100" viewBox="0 0 100 100" fill="none" xmlns="http://www.w3.org/2000/svg">
<g clip-path="url(#clip0_6_206)">
<path d="M67.3828 9.76562C68.1944 10.4487 68.9798 11.143 69.73 11.8941C69.8634 12.0272 69.8634 12.0272 69.9994 12.1629C70.2926 12.4557 70.585 12.7492 70.8774 13.0427C71.0892 13.2546 71.3011 13.4665 71.513 13.6783C72.0848 14.2499 72.6559 14.8222 73.2269 15.3946C73.8251 15.994 74.4238 16.5928 75.0224 17.1917C76.1544 18.3243 77.2859 19.4574 78.4172 20.5907C79.7059 21.8815 80.9951 23.1717 82.2843 24.462C84.9349 27.1147 87.5849 29.768 90.2344 32.4219C89.9323 33.1402 89.4976 33.5988 88.9499 34.1478C88.858 34.2404 88.7661 34.333 88.6714 34.4285C88.3621 34.7398 88.0514 35.0498 87.7407 35.3597C87.5169 35.5844 87.2931 35.8092 87.0695 36.034C86.4537 36.6526 85.8367 37.2699 85.2194 37.8871C84.5544 38.5525 83.8904 39.219 83.2263 39.8853C81.7739 41.3422 80.32 42.7977 78.8658 44.2529C77.9584 45.1609 77.0514 46.0692 76.1444 46.9775C73.6349 49.4909 71.125 52.004 68.6138 54.5157C68.4531 54.6765 68.2924 54.8372 68.1268 55.0029C67.8009 55.3288 67.4751 55.6547 67.1492 55.9806C66.9875 56.1424 66.8257 56.3042 66.6591 56.4709C66.4971 56.6329 66.3352 56.7949 66.1683 56.9618C63.5412 59.5896 60.9164 62.2196 58.2927 64.8507C55.601 67.5498 52.9075 70.2471 50.2121 72.9425C48.6979 74.4568 47.1845 75.9719 45.6731 77.489C44.3868 78.7801 43.0988 80.0695 41.8086 81.3568C41.1498 82.0141 40.4918 82.6723 39.836 83.3326C39.2364 83.9361 38.6347 84.5374 38.031 85.137C37.8123 85.355 37.5943 85.574 37.3773 85.7938C37.0837 86.0909 36.7872 86.3849 36.4899 86.6782C36.2432 86.9251 36.2432 86.9251 35.9916 87.177C35.5469 87.5 35.5469 87.5 35.1251 87.4769C34.591 87.221 34.2439 86.8548 33.8264 86.4359C33.7348 86.3448 33.6432 86.2537 33.5488 86.1599C33.2422 85.8542 32.9376 85.5464 32.633 85.2386C32.4137 85.0191 32.1942 84.7997 31.9746 84.5804C31.3785 83.9845 30.7843 83.3868 30.1903 82.7888C29.5694 82.1642 28.9469 81.5413 28.3245 80.9182C27.146 79.738 25.9691 78.5562 24.7926 77.3739C23.4533 76.028 22.1123 74.6838 20.7712 73.3397C18.0123 70.5747 15.2554 67.8076 12.5 65.0391C12.8025 64.3185 13.2397 63.8602 13.7897 63.3107C13.8822 63.2178 13.9746 63.1248 14.0699 63.0291C14.3811 62.7169 14.6937 62.406 15.0063 62.0951C15.2315 61.8698 15.4566 61.6443 15.6817 61.4188C16.3012 60.7984 16.9219 60.1792 17.5429 59.5602C18.2119 58.8928 18.8799 58.2243 19.5479 57.556C20.7059 56.3978 21.8645 55.2404 23.0237 54.0835C24.6996 52.4107 26.3744 50.7369 28.049 49.0628C30.7658 46.3469 33.4835 43.6318 36.2017 40.9173C38.8425 38.2801 41.4829 35.6425 44.1227 33.0043C44.2854 32.8417 44.448 32.6792 44.6156 32.5117C45.4316 31.6962 46.2477 30.8806 47.0637 30.0651C53.8355 23.2974 60.6087 16.531 67.3828 9.76562Z" fill="black"/>
<path d="M81.543 -0.0732422C81.7986 -0.0766411 81.7986 -0.0766411 82.0595 -0.0801086C87.0052 -0.0581274 90.1706 3.99814 93.3952 7.21545C93.9097 7.72805 94.4263 8.23852 94.9429 8.74901C95.275 9.07987 95.607 9.41085 95.9389 9.74197C96.0911 9.89177 96.2433 10.0416 96.4001 10.1959C98.8613 12.6671 100.077 14.9936 100.11 18.4814C100.113 18.6863 100.116 18.8911 100.119 19.1021C100.076 22.3236 98.501 24.6575 96.2776 26.8379C96.0617 27.0473 95.8458 27.2566 95.6299 27.4658C95.4092 27.6826 95.1887 27.8995 94.9684 28.1166C94.4341 28.6424 93.8975 29.1656 93.3594 29.6875C92.642 29.3859 92.1858 28.9527 91.6389 28.4046C91.5473 28.3134 91.4557 28.2221 91.3613 28.1281C91.0551 27.8225 90.7503 27.5156 90.4455 27.2086C90.2261 26.9891 90.0066 26.7697 89.7871 26.5504C89.1915 25.9548 88.597 25.3581 88.0028 24.7612C87.3816 24.1375 86.7592 23.5149 86.137 22.8922C84.9589 21.7129 83.7818 20.5326 82.6051 19.352C81.2654 18.0079 79.9246 16.665 78.5837 15.3221C75.8254 12.5597 73.0685 9.79593 70.3125 7.03125C70.4986 6.81317 70.6849 6.59521 70.8712 6.37729C71.0267 6.19521 71.0267 6.19521 71.1854 6.00944C74.0474 2.70321 76.9386 -0.134452 81.543 -0.0732422Z" fill="black"/>
<path d="M10.3516 68.75C11.0348 69.0427 11.4749 69.4345 11.9979 69.9587C12.2559 70.2159 12.2559 70.2159 12.5191 70.4783C12.7081 70.6687 12.8971 70.8591 13.0861 71.0496C13.2863 71.2499 13.4865 71.45 13.6868 71.6501C14.23 72.1932 14.772 72.7374 15.3137 73.2819C15.8802 73.8509 16.4478 74.4187 17.0153 74.9867C18.0897 76.0622 19.163 77.1387 20.2359 78.2156C21.4576 79.4416 22.6803 80.6665 23.9031 81.8913C26.4184 84.4107 28.9323 86.9314 31.4453 89.4531C31.1459 90.0519 30.7011 90.0675 30.0751 90.2763C29.951 90.3181 29.827 90.3599 29.6992 90.403C29.281 90.5435 28.8622 90.682 28.4433 90.8204C28.1443 90.9204 27.8454 91.0205 27.5465 91.1208C26.7326 91.3933 25.918 91.6639 25.1034 91.9342C24.2521 92.2169 23.4013 92.5011 22.5505 92.785C21.1208 93.2619 19.6908 93.7375 18.2605 94.2124C16.6062 94.7618 14.9524 95.3131 13.299 95.8653C11.7102 96.396 10.1209 96.9253 8.53144 97.454C7.85434 97.6792 7.17739 97.905 6.50057 98.131C5.70339 98.3973 4.90583 98.6623 4.10796 98.9265C3.81493 99.0237 3.52204 99.1214 3.22928 99.2194C2.83007 99.353 2.43041 99.4852 2.0306 99.6171C1.80688 99.6914 1.58317 99.7658 1.35268 99.8425C0.78125 100 0.78125 100 0 100C0.437636 98.3014 0.971207 96.6411 1.52788 94.9783C1.62199 94.6958 1.71604 94.4132 1.81005 94.1306C2.06331 93.3699 2.3173 92.6094 2.57144 91.849C2.83788 91.0514 3.10369 90.2536 3.36959 89.4559C3.81542 88.1185 4.26171 86.7814 4.70829 85.4443C5.22483 83.8978 5.74075 82.351 6.25633 80.8042C6.80586 79.1554 7.35585 77.5068 7.90596 75.8583C8.06441 75.3833 8.22278 74.9084 8.38113 74.4334C8.62934 73.689 8.87784 72.9446 9.12658 72.2004C9.21794 71.9269 9.3092 71.6534 9.40035 71.3798C9.52442 71.0075 9.64889 70.6353 9.77338 70.2631C9.87783 69.9503 9.87783 69.9503 9.98439 69.6311C10.1562 69.1406 10.1562 69.1406 10.3516 68.75Z" fill="black"/>
</g>
<defs>
<clipPath id="clip0_6_206">
<rect width="100" height="100" fill="white"/>
</clipPath>
</defs>
</svg>
