<svg width="100" height="100" viewBox="0 0 100 100" fill="none" xmlns="http://www.w3.org/2000/svg">
<g clip-path="url(#clip0_6_210)">
<path d="M3.38153 14.7695C3.54521 14.7686 3.70889 14.7676 3.87753 14.7667C4.42848 14.7644 4.97933 14.7662 5.53028 14.768C5.92827 14.7672 6.32626 14.7661 6.72424 14.7648C7.81986 14.762 8.91544 14.7628 10.0111 14.7643C11.1919 14.7652 12.3727 14.7628 13.5535 14.7608C15.7337 14.7576 17.9139 14.7571 20.0941 14.7581C22.1082 14.759 24.1223 14.7589 26.1365 14.7577C26.4065 14.7576 26.6765 14.7574 26.9465 14.7573C27.3533 14.7571 27.7602 14.7568 28.1671 14.7566C31.9505 14.7545 35.7339 14.7536 39.5173 14.7551C39.66 14.7552 39.8026 14.7553 39.9496 14.7553C41.1082 14.7558 42.2668 14.7563 43.4254 14.7568C47.9452 14.7588 52.465 14.7572 56.9849 14.7526C62.0613 14.7475 67.1377 14.745 72.2142 14.7464C72.7553 14.7465 73.2963 14.7467 73.8374 14.7468C73.9706 14.7468 74.1039 14.7469 74.2411 14.7469C76.254 14.7474 78.2668 14.7458 80.2796 14.7432C82.5682 14.7403 84.8568 14.7402 87.1454 14.7436C88.3137 14.7453 89.4819 14.7457 90.6501 14.7427C91.7189 14.74 92.7875 14.7409 93.8563 14.7447C94.2436 14.7455 94.6309 14.7449 95.0182 14.7429C95.5435 14.7403 96.0686 14.7425 96.5939 14.746C96.7453 14.7441 96.8968 14.7422 97.0528 14.7403C98.0647 14.754 98.6468 14.967 99.4141 15.625C99.9711 16.3408 100.073 16.8645 100.074 17.7616C100.076 17.9955 100.078 18.2294 100.079 18.4704C100.078 18.7267 100.077 18.983 100.076 19.247C100.077 19.5225 100.078 19.798 100.079 20.0736C100.082 20.8307 100.081 21.5878 100.079 22.3449C100.079 23.1615 100.081 23.978 100.083 24.7946C100.086 26.3942 100.087 27.9939 100.085 29.5935C100.085 30.8935 100.085 32.1935 100.086 33.4936C100.086 33.6785 100.086 33.8634 100.086 34.0539C100.087 34.4295 100.087 34.8052 100.087 35.1808C100.09 38.7046 100.089 42.2285 100.087 45.7523C100.085 48.9771 100.087 52.202 100.092 55.4268C100.097 58.737 100.099 62.0471 100.097 65.3573C100.097 67.2162 100.097 69.075 100.101 70.9339C100.103 72.5163 100.104 74.0986 100.1 75.681C100.098 76.4885 100.098 77.2959 100.101 78.1035C100.104 78.8426 100.103 79.5816 100.099 80.3208C100.098 80.715 100.101 81.1092 100.104 81.5034C100.086 83.6836 100.086 83.6836 99.2188 84.5703C98.3834 85.2086 97.6336 85.2393 96.6185 85.2305C96.4548 85.2314 96.2911 85.2324 96.1225 85.2333C95.5715 85.2356 95.0207 85.2338 94.4697 85.232C94.0717 85.2328 93.6737 85.2339 93.2758 85.2352C92.1801 85.238 91.0846 85.2371 89.9889 85.2357C88.8081 85.2348 87.6273 85.2372 86.4465 85.2392C84.2663 85.2424 82.0861 85.2429 79.9059 85.2419C77.8918 85.241 75.8777 85.2411 73.8635 85.2423C73.5935 85.2424 73.3235 85.2426 73.0535 85.2427C72.6467 85.2429 72.2398 85.2432 71.8329 85.2434C68.0495 85.2455 64.2661 85.2464 60.4827 85.2449C60.34 85.2448 60.1974 85.2447 60.0504 85.2447C58.8918 85.2442 57.7332 85.2437 56.5746 85.2432C52.0548 85.2412 47.535 85.2428 43.0151 85.2474C37.9387 85.2525 32.8623 85.255 27.7858 85.2536C27.2448 85.2535 26.7037 85.2533 26.1626 85.2532C26.0294 85.2532 25.8961 85.2531 25.7589 85.2531C23.746 85.2526 21.7332 85.2542 19.7204 85.2568C17.4318 85.2597 15.1432 85.2598 12.8546 85.2564C11.6864 85.2547 10.5181 85.2543 9.34988 85.2573C8.28114 85.26 7.21247 85.2591 6.14374 85.2553C5.75641 85.2545 5.36908 85.2551 4.98176 85.2571C4.45646 85.2597 3.9314 85.2575 3.40611 85.254C3.25468 85.2559 3.10324 85.2578 2.94721 85.2597C1.9353 85.246 1.35318 85.033 0.585937 84.375C0.0289118 83.6592 -0.0733879 83.1355 -0.074281 82.2384C-0.0759294 82.0045 -0.0775778 81.7706 -0.0792762 81.5296C-0.0781024 81.2733 -0.0769283 81.017 -0.0757189 80.753C-0.076534 80.4775 -0.077604 80.202 -0.0789067 79.9264C-0.0817345 79.1693 -0.0808992 78.4122 -0.0794599 77.6551C-0.0785373 76.8385 -0.0809775 76.022 -0.0829788 75.2054C-0.08634 73.6058 -0.0864993 72.0061 -0.0854766 70.4064C-0.0846877 69.1064 -0.0849685 67.8064 -0.0860134 66.5064C-0.0861596 66.3215 -0.0863057 66.1366 -0.0864563 65.9461C-0.0867555 65.5705 -0.0870557 65.1948 -0.0873575 64.8192C-0.0900397 61.2954 -0.088975 57.7715 -0.0867354 54.2477C-0.0847952 51.0229 -0.087323 47.798 -0.0919959 44.5732C-0.0967563 41.263 -0.0986372 37.9528 -0.0973372 34.6427C-0.0966543 32.7838 -0.0970959 30.925 -0.100511 29.0661C-0.103382 27.4837 -0.103516 25.9014 -0.100107 24.319C-0.0984408 23.5115 -0.0980347 22.704 -0.101016 21.8965C-0.10371 21.1574 -0.102802 20.4184 -0.0990154 19.6792C-0.0979284 19.285 -0.100686 18.8908 -0.103577 18.4966C-0.0857488 16.3164 -0.0857489 16.3164 0.78125 15.4297C1.61661 14.7914 2.36644 14.7607 3.38153 14.7695Z" fill="black"/>
</g>
<defs>
<clipPath id="clip0_6_210">
<rect width="100" height="100" fill="white"/>
</clipPath>
</defs>
</svg>
