<svg width="100" height="100" viewBox="0 0 100 100" fill="none" xmlns="http://www.w3.org/2000/svg">
<g clip-path="url(#clip0_6_4)">
<path d="M50 100C22.3858 100 0 77.6142 0 50C0 22.3858 22.3858 0 50 0C77.6142 0 100 22.3858 100 50C100 77.6142 77.6142 100 50 100Z" fill="#9A22A5"/>
<path d="M73.5714 31.4425V20.7792V20H74.3506H76.7857H77.5649V20.7792V34.1721V34.2196C77.5649 35.0923 77.5649 35.8129 77.5032 36.3699C77.4407 36.9309 77.3016 37.4976 76.8802 37.9192C76.4586 38.3405 75.8919 38.4796 75.3309 38.5421C74.774 38.6039 74.0534 38.6039 73.1806 38.6039H73.1331H59.7403H58.961V37.8247V35.3896V34.6104H59.7403H70.9657C66.0979 27.9966 58.3123 23.9935 50 23.9935C35.6618 23.9935 23.9935 35.6618 23.9935 50C23.9935 64.3382 35.6618 76.0065 50 76.0065C64.3382 76.0065 76.0065 64.3382 76.0065 50V49.2208H76.7857H79.2208H80V50C80 66.5432 66.5432 80 50 80C33.4568 80 20 66.5432 20 50C20 33.4568 33.4568 20 50 20C59.248 20 67.9306 24.2939 73.5714 31.4425Z" fill="white" stroke="white" stroke-width="5" stroke-linejoin="round"/>
</g>
<defs>
<clipPath id="clip0_6_4">
<rect width="100" height="100" fill="white"/>
</clipPath>
</defs>
</svg>
