<svg width="100" height="100" viewBox="0 0 100 100" fill="none" xmlns="http://www.w3.org/2000/svg">
<g clip-path="url(#clip0_6_222)">
<path d="M100 93.3594C67 93.3594 34 93.3594 0 93.3594C0.167499 92.5219 0.292206 92.1397 0.709534 91.4406C0.817165 91.2584 0.924797 91.0763 1.03569 90.8886C1.15314 90.6928 1.27059 90.4971 1.3916 90.2954C1.6425 89.8716 1.89324 89.4476 2.14386 89.0236C2.33882 88.6949 2.33882 88.6949 2.53773 88.3595C3.16498 87.2966 3.77953 86.2263 4.39453 85.1562C5.33352 83.5257 6.27716 81.898 7.22656 80.2734C8.54436 78.0181 9.85027 75.7561 11.1541 73.4926C11.8868 72.221 12.6205 70.9499 13.354 69.6787C13.9672 68.616 14.58 67.5533 15.1924 66.4902C16.4848 64.2472 17.7825 62.0074 19.0885 59.7723C20.4172 57.4968 21.7317 55.2131 23.0469 52.9297C24.5853 50.2587 26.1272 47.5899 27.6822 44.9286C28.8866 42.866 30.0791 40.7966 31.2713 38.727C32.004 37.4553 32.7377 36.1843 33.4712 34.9131C34.0843 33.8504 34.6972 32.7876 35.3096 31.7245C36.602 29.4815 37.8997 27.2418 39.2056 25.0067C40.5344 22.7311 41.8489 20.4475 43.1641 18.1641C43.6563 17.3095 44.1486 16.455 44.6411 15.6006C44.761 15.3925 44.881 15.1845 45.0045 14.9702C45.97 13.2969 46.9423 11.6278 47.9191 9.96122C48.5623 8.86215 49.1919 7.75693 49.8047 6.64062C49.9336 6.64062 50.0625 6.64062 50.1953 6.64062C50.2638 6.76399 50.3323 6.88736 50.4029 7.01447C51.8962 9.70009 53.4136 12.3689 54.9675 15.02C55.694 16.2599 56.4119 17.5046 57.1289 18.75C58.068 20.3805 59.0115 22.0083 59.9609 23.6328C61.5279 26.3145 63.0778 29.006 64.628 31.6975C65.9316 33.9603 67.2372 36.2218 68.5547 38.4766C69.8725 40.7319 71.1784 42.9939 72.4822 45.2574C73.0931 46.3177 73.7048 47.3776 74.3164 48.4375C75.0515 49.7114 75.7864 50.9854 76.5205 52.2598C77.7013 54.309 78.885 56.3564 80.0781 58.3984C81.6451 61.0802 83.195 63.7716 84.7452 66.4631C86.0487 68.7259 87.3544 70.9874 88.6719 73.2422C89.9897 75.4975 91.2956 77.7596 92.5994 80.023C93.3309 81.2927 94.0635 82.5618 94.7959 83.8309C95.3619 84.8118 95.9277 85.7928 96.4927 86.7743C96.6913 87.1192 96.89 87.4641 97.0886 87.809C97.3367 88.2397 97.5847 88.6705 97.8325 89.1014C97.9458 89.298 98.0591 89.4947 98.1758 89.6973C98.2841 89.8853 98.3924 90.0734 98.504 90.2672C98.9199 90.9768 99.353 91.6753 99.7913 92.3714C100 92.7734 100 92.7734 100 93.3594Z" fill="black"/>
</g>
<defs>
<clipPath id="clip0_6_222">
<rect width="100" height="100" fill="white"/>
</clipPath>
</defs>
</svg>
