<svg width="100" height="100" viewBox="0 0 100 100" fill="none" xmlns="http://www.w3.org/2000/svg">
<g clip-path="url(#clip0_6_212)">
<path d="M50 100C77.6142 100 100 77.6142 100 50C100 22.3858 77.6142 0 50 0C22.3858 0 0 22.3858 0 50C0 77.6142 22.3858 100 50 100Z" fill="#9A22A5"/>
<path d="M26.4286 31.4425V20.7792V20H25.6493H23.2143H22.4351V20.7792V34.1721V34.2196C22.4351 35.0923 22.4351 35.8129 22.4968 36.3699C22.5593 36.9309 22.6984 37.4976 23.1198 37.9192C23.5414 38.3405 24.1081 38.4796 24.6691 38.5421C25.226 38.6039 25.9466 38.6039 26.8193 38.6039H26.8669H40.2597H41.039V37.8247V35.3896V34.6104H40.2597H29.0343C33.9021 27.9966 41.6877 23.9935 50 23.9935C64.3382 23.9935 76.0065 35.6618 76.0065 50C76.0065 64.3382 64.3382 76.0065 50 76.0065C35.6618 76.0065 23.9935 64.3382 23.9935 50V49.2208H23.2143H20.7792H20V50C20 66.5432 33.4568 80 50 80C66.5432 80 80 66.5432 80 50C80 33.4568 66.5432 20 50 20C40.752 20 32.0693 24.2939 26.4286 31.4425Z" fill="white" stroke="white" stroke-width="5" stroke-linejoin="round"/>
</g>
<defs>
<clipPath id="clip0_6_212">
<rect width="100" height="100" fill="white"/>
</clipPath>
</defs>
</svg>
